<svg version="1.1" id="Layer_1" xmlns="http://www.w3.org/2000/svg" xmlns:xlink="http://www.w3.org/1999/xlink" x="0px" y="0px"
	 width="100%" viewBox="0 0 512 512" enable-background="new 0 0 512 512" xml:space="preserve">
<path fill="#FFDE4F" opacity="1.000000" stroke="none" 
	d="
M289.000000,513.000000 
	C278.979095,513.000000 268.958221,513.000000 258.154144,512.747925 
	C253.601807,512.018921 249.838928,511.483948 246.062469,511.074188 
	C219.454697,508.187134 194.036545,501.075714 169.933990,489.372620 
	C173.218079,485.719147 176.345062,482.324463 179.567764,479.023163 
	C189.021759,469.338531 198.513794,459.691010 208.390518,450.034180 
	C222.893814,451.974335 236.997513,453.909302 251.558472,455.890503 
	C263.786041,455.247437 275.718689,455.564301 287.298798,453.696106 
	C339.523315,445.270691 382.289673,420.205811 414.686829,378.315979 
	C442.385040,342.501862 455.952057,301.650879 456.029449,256.318176 
	C456.057404,239.928833 453.754730,223.867310 450.384003,207.810471 
	C464.750183,193.670883 478.839233,179.689789 492.860016,165.640564 
	C493.846954,164.651672 494.330414,163.160355 495.383911,162.077240 
	C495.803680,162.570786 495.862976,162.898666 495.974884,163.207458 
	C503.088867,182.834076 509.300385,202.682800 511.099640,223.647110 
	C511.142700,224.148743 512.340698,224.551254 513.000000,225.000000 
	C513.000000,246.020889 513.000000,267.041779 512.662964,288.188568 
	C511.882904,289.148590 511.221954,289.935516 511.029541,290.823914 
	C508.019226,304.721954 505.613861,318.777649 501.970276,332.505371 
	C497.222443,350.393524 489.519073,367.138336 480.366425,383.263611 
	C471.425140,399.016602 461.113892,413.794159 449.036041,427.197723 
	C440.962524,436.157379 431.896790,444.255768 422.972656,452.408508 
	C409.358124,464.846130 393.999023,474.949524 377.756927,483.499603 
	C350.490540,497.853027 321.692017,507.755859 290.853363,511.070282 
	C290.174255,511.143250 289.615082,512.331787 289.000000,513.000000 
z"/>
<path fill="#FFDE50" opacity="1.000000" stroke="none" 
	d="
M259.000000,1.000000 
	C268.687561,1.000000 278.375122,1.000000 288.189209,1.333045 
	C289.147614,2.111505 289.938324,2.824977 290.817841,2.959965 
	C297.904083,4.047539 305.136810,4.481851 312.081146,6.137613 
	C335.275665,11.667973 357.682098,19.474972 378.644867,31.019127 
	C381.599945,32.646473 384.227844,34.867954 386.675537,36.909519 
	C372.574402,50.670258 358.804962,64.335899 344.675781,77.950661 
	C314.198883,63.561554 282.543152,56.636906 248.677887,58.101807 
	C238.826843,59.115658 229.301819,59.506672 220.065140,61.345848 
	C171.362473,71.043350 130.896271,94.881317 100.461784,134.248489 
	C62.091370,183.880783 49.613583,239.921951 63.131443,301.167511 
	C66.434998,316.134949 72.968712,330.389404 77.731644,345.145294 
	C72.362343,350.335968 67.328003,355.404327 62.180168,360.354675 
	C57.653492,364.707703 52.999767,368.928558 48.170795,372.913818 
	C47.367802,371.606018 46.741001,370.619019 46.232452,369.574463 
	C26.218767,328.467316 17.570312,285.195129 20.793032,239.482803 
	C22.192266,219.635544 25.466841,200.201523 31.461624,181.287430 
	C47.168705,131.730164 75.109802,90.426262 115.632164,57.726494 
	C151.402512,28.861372 192.011292,10.967118 237.428024,3.987306 
	C244.602280,2.884742 251.808533,1.990541 259.000000,1.000000 
z"/>
<path fill="#000000" opacity="0.000000" stroke="none" 
	d="
M225.000000,513.000000 
	C150.406296,513.000000 75.812599,513.000000 1.000000,513.000000 
	C1.000000,438.645905 1.000000,364.291626 1.341631,289.138214 
	C2.097189,288.845062 2.769104,289.297333 2.887202,289.864838 
	C5.618827,302.991547 7.801136,316.254486 11.085064,329.239319 
	C16.294500,349.837646 24.888298,369.103455 36.184246,387.513000 
	C45.457451,402.984985 55.578438,417.406525 68.089615,430.436127 
	C78.180695,439.949982 88.151993,449.158875 98.299042,458.637939 
	C118.306587,474.038147 139.585373,486.644928 163.218079,495.906006 
	C164.761383,496.546875 165.877838,497.226807 167.086578,497.630249 
	C185.211823,503.680145 203.490128,509.094818 222.609406,511.075836 
	C223.463547,511.164337 224.205688,512.333984 225.000000,513.000000 
z"/>
<path fill="#000000" opacity="0.000000" stroke="none" 
	d="
M387.007172,36.814423 
	C384.227844,34.867954 381.599945,32.646473 378.644867,31.019127 
	C357.682098,19.474972 335.275665,11.667973 312.081146,6.137613 
	C305.136810,4.481851 297.904083,4.047539 290.817841,2.959965 
	C289.938324,2.824977 289.147614,2.111505 288.657867,1.333045 
	C363.593719,1.000000 438.187408,1.000000 513.000000,1.000000 
	C513.000000,75.354088 513.000000,149.708389 513.000000,224.531342 
	C512.340698,224.551254 511.142700,224.148743 511.099640,223.647110 
	C509.300385,202.682800 503.088867,182.834076 495.974884,163.207458 
	C495.862976,162.898666 495.803680,162.570786 495.339722,161.702271 
	C493.088501,156.728088 491.358002,152.237610 489.321594,147.890427 
	C481.159332,130.466080 470.973633,114.276558 459.061920,98.738419 
	C449.262177,88.219337 439.615601,78.024910 429.832336,67.530960 
	C418.719910,58.822388 407.817688,50.314312 396.718811,42.071075 
	C393.793732,39.898582 390.260925,38.544384 387.007172,36.814423 
z"/>
<path fill="#000000" opacity="0.000000" stroke="none" 
	d="
M289.468658,513.000000 
	C289.615082,512.331787 290.174255,511.143250 290.853363,511.070282 
	C321.692017,507.755859 350.490540,497.853027 377.756927,483.499603 
	C393.999023,474.949524 409.358124,464.846130 422.972656,452.408508 
	C431.896790,444.255768 440.962524,436.157379 449.036041,427.197723 
	C461.113892,413.794159 471.425140,399.016602 480.366425,383.263611 
	C489.519073,367.138336 497.222443,350.393524 501.970276,332.505371 
	C505.613861,318.777649 508.019226,304.721954 511.029541,290.823914 
	C511.221954,289.935516 511.882904,289.148590 512.662964,288.657227 
	C513.000000,363.593719 513.000000,438.187408 513.000000,513.000000 
	C438.645905,513.000000 364.291626,513.000000 289.468658,513.000000 
z"/>
<path fill="#000000" opacity="0.000000" stroke="none" 
	d="
M1.000000,224.000000 
	C1.000000,149.739456 1.000000,75.478920 1.000000,1.000000 
	C75.354088,1.000000 149.708389,1.000000 224.860321,1.347102 
	C220.304550,2.789091 214.969864,3.987273 209.594589,4.961498 
	C182.128952,9.939440 156.299759,19.316198 131.917923,32.954102 
	C105.030945,47.993259 81.831146,67.361328 61.779701,90.673340 
	C45.443569,109.665909 32.156536,130.548874 22.149891,153.500671 
	C12.594080,175.418396 5.799724,198.125351 2.921321,221.935303 
	C2.830095,222.689941 1.664659,223.314697 1.000000,224.000000 
z"/>
<path fill="#F0CD01" opacity="1.000000" stroke="none" 
	d="
M1.000000,224.468658 
	C1.664659,223.314697 2.830095,222.689941 2.921321,221.935303 
	C5.799724,198.125351 12.594080,175.418396 22.149891,153.500671 
	C32.156536,130.548874 45.443569,109.665909 61.779701,90.673340 
	C81.831146,67.361328 105.030945,47.993259 131.917923,32.954102 
	C156.299759,19.316198 182.128952,9.939440 209.594589,4.961498 
	C214.969864,3.987273 220.304550,2.789091 225.328979,1.347102 
	C236.020889,1.000000 247.041794,1.000000 258.531342,1.000000 
	C251.808533,1.990541 244.602280,2.884742 237.428024,3.987306 
	C192.011292,10.967118 151.402512,28.861372 115.632164,57.726494 
	C75.109802,90.426262 47.168705,131.730164 31.461624,181.287430 
	C25.466841,200.201523 22.192266,219.635544 20.793032,239.482803 
	C17.570312,285.195129 26.218767,328.467316 46.232452,369.574463 
	C46.741001,370.619019 47.367802,371.606018 48.061920,373.243774 
	C44.132137,378.316254 40.079884,382.764771 36.027634,387.213287 
	C24.888298,369.103455 16.294500,349.837646 11.085064,329.239319 
	C7.801136,316.254486 5.618827,302.991547 2.887202,289.864838 
	C2.769104,289.297333 2.097189,288.845062 1.341631,288.669556 
	C1.000000,267.645782 1.000000,246.291550 1.000000,224.468658 
z"/>
<path fill="#F1CE03" opacity="1.000000" stroke="none" 
	d="
M225.468658,513.000000 
	C224.205688,512.333984 223.463547,511.164337 222.609406,511.075836 
	C203.490128,509.094818 185.211823,503.680145 167.086578,497.630249 
	C165.877838,497.226807 164.761383,496.546875 163.452484,495.667847 
	C165.475510,493.451477 167.648056,491.562805 169.820618,489.674133 
	C194.036545,501.075714 219.454697,508.187134 246.062469,511.074188 
	C249.838928,511.483948 253.601807,512.018921 257.685486,512.747925 
	C247.312439,513.000000 236.624878,513.000000 225.468658,513.000000 
z"/>
<path fill="#FAA300" opacity="1.000000" stroke="none" 
	d="
M251.101212,455.844269 
	C236.997513,453.909302 222.893814,451.974335 208.048706,449.880981 
	C188.692184,444.621002 170.924957,437.505707 154.428253,427.393494 
	C148.945114,424.032471 143.507278,420.597534 137.913605,416.869690 
	C130.844009,410.360199 123.909569,404.177399 117.038559,397.656586 
	C124.415199,389.882080 131.728394,382.445587 139.326950,375.175659 
	C143.343384,377.696594 146.887100,381.604797 150.844513,382.081940 
	C159.096817,383.076843 167.567780,382.258087 176.316391,382.195007 
	C178.124481,382.521484 179.565109,382.837463 181.003586,383.611420 
	C181.003143,390.192749 180.799698,396.324646 181.055649,402.437378 
	C181.419418,411.124817 187.004044,416.252991 194.270920,419.458954 
	C201.332047,422.574127 208.147690,421.479858 214.301132,416.206055 
	C216.941055,417.559418 219.147842,419.133850 221.606613,419.935730 
	C232.366409,423.444946 241.833801,418.372345 248.294220,406.237915 
	C249.251404,407.767853 249.924728,409.090210 250.690231,410.356842 
	C257.729065,422.003326 272.327393,424.502380 281.305847,416.199036 
	C288.873016,421.661896 296.608734,422.626953 304.611328,418.378723 
	C312.463501,414.210327 315.650330,407.175751 315.775787,398.553284 
	C315.831543,394.721252 316.095978,390.856659 315.711243,387.063080 
	C315.247467,382.489746 316.879303,380.552460 321.364166,378.977814 
	C349.902191,368.957977 367.604309,348.831665 372.384949,319.067780 
	C377.030273,290.146454 366.932007,266.015015 344.141022,247.393707 
	C342.631989,246.160767 341.088654,244.969818 339.522339,243.728455 
	C340.236053,242.420959 340.663818,241.523178 341.191132,240.688263 
	C350.226196,226.382965 354.546631,210.808243 351.903900,194.024811 
	C350.575226,185.586533 347.300201,177.454727 345.073914,168.883179 
	C357.812103,155.915512 370.369202,143.236511 382.981964,130.613068 
	C383.745789,129.848602 384.951782,129.525909 386.249329,129.159058 
	C394.691650,141.202759 404.010071,152.457672 410.762268,165.084824 
	C431.177124,203.262482 437.452148,244.253799 430.984924,286.939545 
	C423.074432,339.151581 397.705231,381.478638 356.334381,414.120972 
	C332.568451,432.872711 305.674591,445.259033 276.017303,451.453796 
	C267.766266,453.177277 259.409485,454.394714 251.101212,455.844269 
z"/>
<path fill="#F68F01" opacity="1.000000" stroke="none" 
	d="
M251.558472,455.890503 
	C259.409485,454.394714 267.766266,453.177277 276.017303,451.453796 
	C305.674591,445.259033 332.568451,432.872711 356.334381,414.120972 
	C397.705231,381.478638 423.074432,339.151581 430.984924,286.939545 
	C437.452148,244.253799 431.177124,203.262482 410.762268,165.084824 
	C404.010071,152.457672 394.691650,141.202759 386.200378,128.820908 
	C375.982941,118.785591 366.757843,108.446800 356.108307,99.878357 
	C332.713776,81.055450 305.947266,68.777786 276.487915,62.697495 
	C267.443176,60.830692 258.257874,59.644836 249.136932,58.147160 
	C282.543152,56.636906 314.198883,63.561554 344.911255,78.192406 
	C361.573090,86.487709 376.114594,96.754219 389.978149,108.576630 
	C399.377228,118.943665 408.582336,129.049042 417.903503,139.477631 
	C432.922089,160.535858 443.576599,183.269882 450.090363,207.952469 
	C453.754730,223.867310 456.057404,239.928833 456.029449,256.318176 
	C455.952057,301.650879 442.385040,342.501862 414.686829,378.315979 
	C382.289673,420.205811 339.523315,445.270691 287.298798,453.696106 
	C275.718689,455.564301 263.786041,455.247437 251.558472,455.890503 
z"/>
<path fill="#FFEA92" opacity="1.000000" stroke="none" 
	d="
M138.048737,417.196381 
	C143.507278,420.597534 148.945114,424.032471 154.428253,427.393494 
	C170.924957,437.505707 188.692184,444.621002 207.649109,449.875763 
	C198.513794,459.691010 189.021759,469.338531 179.567764,479.023163 
	C176.345062,482.324463 173.218079,485.719147 169.933990,489.372620 
	C167.648056,491.562805 165.475510,493.451477 163.068558,495.578339 
	C139.585373,486.644928 118.306587,474.038147 98.581909,458.439514 
	C101.499588,454.979401 104.310135,451.987885 107.404938,448.838562 
	C117.136055,439.294403 126.600670,429.925690 136.000900,420.492798 
	C136.890427,419.600220 137.375763,418.304779 138.048737,417.196381 
z"/>
<path fill="#FFEA93" opacity="1.000000" stroke="none" 
	d="
M450.384003,207.810471 
	C443.576599,183.269882 432.922089,160.535858 418.102234,139.187378 
	C430.594299,126.097816 442.984344,113.602173 455.450653,101.183159 
	C456.433807,100.203766 457.947815,99.757240 459.215088,99.063065 
	C470.973633,114.276558 481.159332,130.466080 489.321594,147.890427 
	C491.358002,152.237610 493.088501,156.728088 495.003784,161.527679 
	C494.330414,163.160355 493.846954,164.651672 492.860016,165.640564 
	C478.839233,179.689789 464.750183,193.670883 450.384003,207.810471 
z"/>
<path fill="#FFBD00" opacity="1.000000" stroke="none" 
	d="
M248.677887,58.101807 
	C258.257874,59.644836 267.443176,60.830692 276.487915,62.697495 
	C305.947266,68.777786 332.713776,81.055450 356.108307,99.878357 
	C366.757843,108.446800 375.982941,118.785591 385.903107,128.659515 
	C384.951782,129.525909 383.745789,129.848602 382.981964,130.613068 
	C370.369202,143.236511 357.812103,155.915512 344.821106,168.647766 
	C338.185089,157.609619 329.738373,148.649078 319.115387,141.595566 
	C317.444550,140.486160 316.091675,137.764404 315.951691,135.696136 
	C315.536865,129.566086 315.718719,123.388657 315.820923,117.232300 
	C315.972260,108.114380 313.267334,100.415100 304.903229,95.766457 
	C296.561890,91.130463 288.576874,92.533966 280.846130,97.630455 
	C273.778107,92.051697 266.097443,91.006683 259.020752,95.773170 
	C254.615570,98.740257 251.670044,103.874458 247.881775,107.739075 
	C240.777512,92.545921 228.080704,88.948837 213.840027,97.623596 
	C206.906143,92.142357 199.585632,91.338737 192.231079,95.465973 
	C185.210098,99.406021 180.531265,105.114838 180.929108,113.908150 
	C181.184204,119.546738 180.976181,125.206284 180.636353,130.930756 
	C179.161453,131.208267 178.025925,131.411469 176.525299,131.450882 
	C169.837692,131.191086 163.515320,131.024460 157.192657,131.014145 
	C144.962570,130.994186 135.168640,140.037735 135.040207,151.371872 
	C134.905640,163.247162 144.696671,172.993011 157.232971,172.872330 
	C161.899582,172.827408 163.130692,174.326828 163.118546,178.861984 
	C162.979660,230.683472 163.031708,282.505493 163.028549,334.327362 
	C163.028152,340.884033 163.016876,340.884033 156.545273,341.019196 
	C146.168915,341.235962 138.727631,347.444000 135.821884,357.354095 
	C133.872787,364.001434 136.673065,369.368866 139.041595,375.009094 
	C131.728394,382.445587 124.415199,389.882080 116.747833,397.503357 
	C113.913673,395.456848 111.433670,393.225494 108.874191,390.665771 
	C96.905388,376.321472 86.584213,361.241638 78.017288,344.971680 
	C72.968712,330.389404 66.434998,316.134949 63.131443,301.167511 
	C49.613583,239.921951 62.091370,183.880783 100.461784,134.248489 
	C130.896271,94.881317 171.362473,71.043350 220.065140,61.345848 
	C229.301819,59.506672 238.826843,59.115658 248.677887,58.101807 
z"/>
<path fill="#FFEA92" opacity="1.000000" stroke="none" 
	d="
M77.731644,345.145294 
	C86.584213,361.241638 96.905388,376.321472 108.539230,390.717468 
	C98.179115,401.044342 88.074493,410.991211 77.719727,421.156616 
	C74.302994,424.293793 71.136406,427.212463 67.969818,430.131165 
	C55.578438,417.406525 45.457451,402.984985 36.184242,387.513000 
	C40.079884,382.764771 44.132137,378.316254 48.293262,373.537781 
	C52.999767,368.928558 57.653492,364.707703 62.180168,360.354675 
	C67.328003,355.404327 72.362343,350.335968 77.731644,345.145294 
z"/>
<path fill="#FFEA93" opacity="1.000000" stroke="none" 
	d="
M389.784149,108.314972 
	C376.114594,96.754219 361.573090,86.487709 345.270966,78.243294 
	C358.804962,64.335899 372.574402,50.670258 386.675537,36.909519 
	C390.260925,38.544384 393.793732,39.898582 396.718811,42.071075 
	C407.817688,50.314312 418.719910,58.822388 429.713989,67.855057 
	C416.416290,81.757439 403.100220,95.036209 389.784149,108.314972 
z"/>
<path fill="#F0CD02" opacity="1.000000" stroke="none" 
	d="
M68.089607,430.436127 
	C71.136406,427.212463 74.302994,424.293793 78.066330,421.207458 
	C80.093346,422.348114 81.570152,423.609375 82.946175,424.972412 
	C91.017403,432.967194 99.065063,440.985779 107.120682,448.996338 
	C104.310135,451.987885 101.499588,454.979401 98.406158,458.169312 
	C88.151993,449.158875 78.180695,439.949982 68.089607,430.436127 
z"/>
<path fill="#FFDE50" opacity="1.000000" stroke="none" 
	d="
M389.978149,108.576637 
	C403.100220,95.036209 416.416290,81.757439 429.850708,68.154579 
	C439.615601,78.024910 449.262177,88.219337 459.061920,98.738411 
	C457.947815,99.757240 456.433807,100.203766 455.450653,101.183159 
	C442.984344,113.602173 430.594299,126.097816 417.986145,138.864166 
	C408.582336,129.049042 399.377228,118.943665 389.978149,108.576637 
z"/>
<path fill="#FFE993" opacity="1.000000" stroke="none" 
	d="
M214.035263,97.906326 
	C228.080704,88.948837 240.777512,92.545921 247.876129,108.159531 
	C248.428696,116.092560 248.799255,123.308167 249.172729,130.580612 
	C257.539154,130.580612 265.543243,130.580612 273.919861,130.580612 
	C273.919861,125.873596 274.149261,121.567215 273.869446,117.294182 
	C273.372314,109.702225 275.636353,103.258759 281.041626,97.913887 
	C288.576874,92.533966 296.561890,91.130463 304.903229,95.766457 
	C313.267334,100.415100 315.972260,108.114380 315.820923,117.232300 
	C315.718719,123.388657 315.536865,129.566086 315.951691,135.696136 
	C316.091675,137.764404 317.444550,140.486160 319.115387,141.595566 
	C329.738373,148.649078 338.185089,157.609619 344.652527,168.948898 
	C347.300201,177.454727 350.575226,185.586533 351.903900,194.024811 
	C354.546631,210.808243 350.226196,226.382965 341.191132,240.688263 
	C340.663818,241.523178 340.236053,242.420959 339.522339,243.728455 
	C341.088654,244.969818 342.631989,246.160767 344.141022,247.393707 
	C366.932007,266.015015 377.030273,290.146454 372.384949,319.067780 
	C367.604309,348.831665 349.902191,368.957977 321.364166,378.977814 
	C316.879303,380.552460 315.247467,382.489746 315.711243,387.063080 
	C316.095978,390.856659 315.831543,394.721252 315.775787,398.553284 
	C315.650330,407.175751 312.463501,414.210327 304.611328,418.378723 
	C296.608734,422.626953 288.873016,421.661896 281.136353,415.904327 
	C270.696350,406.583588 275.073700,394.400757 273.579346,383.362000 
	C265.310303,383.362000 257.288605,383.362000 249.151718,383.362000 
	C248.774094,391.145050 248.413620,398.574768 248.053131,406.004456 
	C241.833801,418.372345 232.366409,423.444946 221.606613,419.935730 
	C219.147842,419.133850 216.941055,417.559418 214.131042,415.911560 
	C203.658417,406.592010 208.087845,394.380676 206.530228,383.153442 
	C197.874954,383.153442 189.440338,383.153442 181.005722,383.153442 
	C179.565109,382.837463 178.124481,382.521484 175.991882,382.052307 
	C164.419006,376.726410 159.688553,368.059204 161.960480,357.458374 
	C164.082520,347.556946 172.501373,341.154053 184.127808,341.215027 
	C188.326340,341.237030 189.429520,339.931091 189.419830,335.832550 
	C189.295776,283.392059 189.295258,230.951111 189.419830,178.510666 
	C189.429764,174.327698 188.579285,172.719635 183.970932,172.763870 
	C171.749802,172.881195 163.549850,166.021515 161.687912,154.898529 
	C159.970779,144.640610 165.810898,135.695999 176.890411,131.614670 
	C178.025925,131.411469 179.161453,131.208267 181.106110,130.983475 
	C190.127838,130.961884 198.340454,130.961884 206.908813,130.961884 
	C206.908813,125.862518 207.144760,121.554764 206.856979,117.282280 
	C206.345062,109.682327 208.635880,103.251427 214.035263,97.906326 
M261.084808,172.936752 
	C252.451157,172.922729 243.816055,172.994705 235.184677,172.847397 
	C232.217117,172.796768 231.080811,173.755112 231.100174,176.828308 
	C231.205780,193.597351 231.195343,210.367630 231.107712,227.136887 
	C231.092453,230.052719 231.954636,231.353058 235.065765,231.287094 
	C244.024872,231.097092 252.988464,231.117020 262.889679,231.187195 
	C270.038879,231.173309 277.203705,231.457367 284.334015,231.083282 
	C298.992676,230.314194 311.001678,216.940674 310.897369,201.906631 
	C310.793365,186.919891 298.571533,173.636948 283.954102,173.017120 
	C276.655365,172.707626 269.329803,173.031647 261.084808,172.936752 
M277.089478,273.131958 
	C264.418823,273.177795 251.748169,273.223602 238.190475,273.098877 
	C230.697601,272.896393 230.695770,272.896515 231.166977,280.140411 
	C231.187988,280.463440 231.297363,280.780731 231.245483,282.016998 
	C231.217056,300.347595 231.232208,318.678436 231.115448,337.008484 
	C231.096924,339.917053 231.864563,341.198578 235.035263,341.159607 
	C249.695419,340.979462 264.357910,340.989044 279.946838,341.058533 
	C286.270050,341.066956 292.595947,341.198975 298.915924,341.060150 
	C316.352051,340.677216 330.336395,326.958679 331.748260,308.983490 
	C333.050903,292.399109 320.357941,276.303497 303.388947,273.973236 
	C296.036713,272.963593 288.474365,273.484192 280.338074,273.171265 
	C279.883362,273.183838 279.428650,273.196411 278.500061,273.120636 
	C278.500061,273.120636 278.026703,273.211517 277.089478,273.131958 
z"/>
<path fill="#F68F00" opacity="1.000000" stroke="none" 
	d="
M176.525299,131.450882 
	C165.810898,135.695999 159.970779,144.640610 161.687912,154.898529 
	C163.549850,166.021515 171.749802,172.881195 183.970932,172.763870 
	C188.579285,172.719635 189.429764,174.327698 189.419830,178.510666 
	C189.295258,230.951111 189.295776,283.392059 189.419830,335.832550 
	C189.429520,339.931091 188.326340,341.237030 184.127808,341.215027 
	C172.501373,341.154053 164.082520,347.556946 161.960480,357.458374 
	C159.688553,368.059204 164.419006,376.726410 175.624420,382.041809 
	C167.567780,382.258087 159.096817,383.076843 150.844513,382.081940 
	C146.887100,381.604797 143.343384,377.696594 139.326950,375.175659 
	C136.673065,369.368866 133.872787,364.001434 135.821884,357.354095 
	C138.727631,347.444000 146.168915,341.235962 156.545273,341.019196 
	C163.016876,340.884033 163.028152,340.884033 163.028549,334.327362 
	C163.031708,282.505493 162.979660,230.683472 163.118546,178.861984 
	C163.130692,174.326828 161.899582,172.827408 157.232971,172.872330 
	C144.696671,172.993011 134.905640,163.247162 135.040207,151.371872 
	C135.168640,140.037735 144.962570,130.994186 157.192657,131.014145 
	C163.515320,131.024460 169.837692,131.191086 176.525299,131.450882 
z"/>
<path fill="#FFDE50" opacity="1.000000" stroke="none" 
	d="
M107.404938,448.838562 
	C99.065063,440.985779 91.017403,432.967194 82.946175,424.972412 
	C81.570152,423.609375 80.093346,422.348114 78.316483,420.988953 
	C88.074493,410.991211 98.179115,401.044342 108.618706,391.045807 
	C111.433670,393.225494 113.913673,395.456848 116.684402,397.841370 
	C123.909569,404.177399 130.844009,410.360199 137.913605,416.869690 
	C137.375763,418.304779 136.890427,419.600220 136.000900,420.492798 
	C126.600670,429.925690 117.136055,439.294403 107.404938,448.838562 
z"/>
<path fill="#F68F01" opacity="1.000000" stroke="none" 
	d="
M181.003586,383.611420 
	C189.440338,383.153442 197.874954,383.153442 206.530228,383.153442 
	C208.087845,394.380676 203.658417,406.592010 213.813873,415.777100 
	C208.147690,421.479858 201.332047,422.574127 194.270920,419.458954 
	C187.004044,416.252991 181.419418,411.124817 181.055649,402.437378 
	C180.799698,396.324646 181.003143,390.192749 181.003586,383.611420 
z"/>
<path fill="#F68F01" opacity="1.000000" stroke="none" 
	d="
M248.294235,406.237915 
	C248.413620,398.574768 248.774094,391.145050 249.151718,383.362000 
	C257.288605,383.362000 265.310303,383.362000 273.579346,383.362000 
	C275.073700,394.400757 270.696350,406.583588 280.819092,415.770020 
	C272.327393,424.502380 257.729065,422.003326 250.690231,410.356842 
	C249.924728,409.090210 249.251404,407.767853 248.294235,406.237915 
z"/>
<path fill="#F68F01" opacity="1.000000" stroke="none" 
	d="
M213.840027,97.623596 
	C208.635880,103.251427 206.345062,109.682327 206.856979,117.282280 
	C207.144760,121.554764 206.908813,125.862518 206.908813,130.961884 
	C198.340454,130.961884 190.127838,130.961884 181.445496,130.909149 
	C180.976181,125.206284 181.184204,119.546738 180.929108,113.908150 
	C180.531265,105.114838 185.210098,99.406021 192.231079,95.465973 
	C199.585632,91.338737 206.906143,92.142357 213.840027,97.623596 
z"/>
<path fill="#F68F01" opacity="1.000000" stroke="none" 
	d="
M280.846130,97.630455 
	C275.636353,103.258759 273.372314,109.702225 273.869446,117.294182 
	C274.149261,121.567215 273.919861,125.873596 273.919861,130.580612 
	C265.543243,130.580612 257.539154,130.580612 249.172729,130.580612 
	C248.799255,123.308167 248.428696,116.092560 248.063782,108.456505 
	C251.670044,103.874458 254.615570,98.740257 259.020752,95.773170 
	C266.097443,91.006683 273.778107,92.051697 280.846130,97.630455 
z"/>
<path fill="#FAA300" opacity="1.000000" stroke="none" 
	d="
M279.019562,340.930664 
	C264.357910,340.989044 249.695419,340.979462 235.035263,341.159607 
	C231.864563,341.198578 231.096924,339.917053 231.115448,337.008484 
	C231.232208,318.678436 231.217056,300.347595 231.609863,281.460938 
	C234.342010,278.359711 236.709763,275.814575 239.077515,273.269440 
	C251.748169,273.223602 264.418823,273.177795 277.659973,273.269653 
	C278.230438,273.407349 278.635956,273.447418 278.635956,273.447418 
	C278.635956,273.447418 278.973938,273.208954 278.973938,273.208984 
	C279.428650,273.196411 279.883362,273.183838 280.794647,273.542542 
	C282.231445,274.484283 283.156830,275.194153 284.200012,275.604614 
	C307.321350,284.702423 313.078400,316.185089 294.269257,332.012634 
	C289.828827,335.749207 284.136169,337.997650 279.019562,340.930664 
z"/>
<path fill="#FFBD01" opacity="1.000000" stroke="none" 
	d="
M261.950287,231.054459 
	C252.988464,231.117020 244.024872,231.097092 235.065765,231.287094 
	C231.954636,231.353058 231.092453,230.052719 231.107712,227.136887 
	C231.195343,210.367630 231.205780,193.597351 231.100174,176.828308 
	C231.080811,173.755112 232.217117,172.796768 235.184677,172.847397 
	C243.816055,172.994705 252.451157,172.922729 261.814880,173.229462 
	C263.781372,173.990875 265.014923,174.467468 266.254730,174.927139 
	C279.226532,179.736618 287.254730,194.889587 283.961853,208.295029 
	C281.045074,220.169327 273.170074,227.223129 261.950287,231.054459 
z"/>
<path fill="#F68F01" opacity="1.000000" stroke="none" 
	d="
M279.483215,340.994598 
	C284.136169,337.997650 289.828827,335.749207 294.269257,332.012634 
	C313.078400,316.185089 307.321350,284.702423 284.200012,275.604614 
	C283.156830,275.194153 282.231445,274.484283 281.129333,273.611786 
	C288.474365,273.484192 296.036713,272.963593 303.388947,273.973236 
	C320.357941,276.303497 333.050903,292.399109 331.748260,308.983490 
	C330.336395,326.958679 316.352051,340.677216 298.915924,341.060150 
	C292.595947,341.198975 286.270050,341.066956 279.483215,340.994598 
z"/>
<path fill="#F68F01" opacity="1.000000" stroke="none" 
	d="
M262.419983,231.120819 
	C273.170074,227.223129 281.045074,220.169327 283.961853,208.295029 
	C287.254730,194.889587 279.226532,179.736618 266.254730,174.927139 
	C265.014923,174.467468 263.781372,173.990875 262.280640,173.295624 
	C269.329803,173.031647 276.655365,172.707626 283.954102,173.017120 
	C298.571533,173.636948 310.793365,186.919891 310.897369,201.906631 
	C311.001678,216.940674 298.992676,230.314194 284.334015,231.083282 
	C277.203705,231.457367 270.038879,231.173309 262.419983,231.120819 
z"/>
<path fill="#FDBB1D" opacity="1.000000" stroke="none" 
	d="
M238.634003,273.184143 
	C236.709763,275.814575 234.342010,278.359711 231.669922,281.002747 
	C231.297363,280.780731 231.187988,280.463440 231.166977,280.140411 
	C230.695770,272.896515 230.697601,272.896393 238.634003,273.184143 
z"/>
<path fill="#FDBB1D" opacity="1.000000" stroke="none" 
	d="
M278.737000,273.164795 
	C278.973938,273.208954 278.635956,273.447418 278.635956,273.447418 
	C278.635956,273.447418 278.230438,273.407349 278.128571,273.309448 
	C278.026703,273.211517 278.500061,273.120636 278.737000,273.164795 
z"/>
</svg>